<?xml version="1.0" standalone="no"?><!DOCTYPE svg PUBLIC "-//W3C//DTD SVG 1.1//EN" "http://www.w3.org/Graphics/SVG/1.1/DTD/svg11.dtd"><svg width="16" height="16" viewBox="0 0 16 16" version="1.1" xmlns="http://www.w3.org/2000/svg" xmlns:xlink="http://www.w3.org/1999/xlink"><defs><style type="text/css"><![CDATA[
@font-face { font-family: ifont; src: url("//at.alicdn.com/t/font_1442373896_4754455.eot?#iefix") format("embedded-opentype"), url("//at.alicdn.com/t/font_1442373896_4754455.woff") format("woff"), url("//at.alicdn.com/t/font_1442373896_4754455.ttf") format("truetype"), url("//at.alicdn.com/t/font_1442373896_4754455.svg#ifont") format("svg"); }

]]></style></defs><g class="transform-group"><g transform="scale(0.015625, 0.015625)"><path d="M128.759037 245.033739l383.064442 383.064442 388.096039-388.097062 0.033769 0.070608c13.138228-12.709463 31.024597-20.528546 50.730405-20.528546 40.377616 0 73.114205 32.736589 73.114205 73.115228 0 19.705807-7.820106 37.591153-20.530592 50.730405l0.035816 0.034792-438.681134 438.685227-0.035816-0.035816c-13.280468 13.780865-31.915897 22.3838-52.585659 22.3838-0.071631 0-0.107447 0-0.178055 0-0.072655 0-0.10847 0-0.146333 0-20.669762 0-39.341007-8.601912-52.621475-22.3838l-0.035816 0.035816L20.336676 343.425653l0.179079-0.179079c-12.565177-13.139252-20.313651-30.951943-20.313651-50.587142 0-40.378639 32.736589-73.115228 73.114205-73.115228C95.485213 219.544205 115.334283 229.432413 128.759037 245.033739z" fill="#ee3113"></path></g></g></svg>